Coordinates
version=1
nRows=6
nColumns=36
inDegrees=yes

Units are S.I. units (second, meters, Newtons, ...)
If the header above contains a line with 'inDegrees', this indicates whether rotational values are in degrees (yes) or radians (no).

endheader
time	pelvis_tilt	pelvis_list	pelvis_rotation	pelvis_tx	pelvis_ty	pelvis_tz	hip_flexion_r	hip_adduction_r	hip_rotation_r	knee_angle_r	knee_angle_r_beta	ankle_angle_r	subtalar_angle_r	mtp_angle_r	hip_flexion_l	hip_adduction_l	hip_rotation_l	knee_angle_l	knee_angle_l_beta	ankle_angle_l	subtalar_angle_l	mtp_angle_l	lumbar_extension	lumbar_bending	lumbar_rotation	arm_flex_r	arm_add_r	arm_rot_r	elbow_flex_r	pro_sup_r	arm_flex_l	arm_add_l	arm_rot_l	elbow_flex_l	pro_sup_l
     30.23333330	      3.35044066	      6.67432911	    191.38634056	      0.25521513	      0.96317185	      0.67101768	      7.78200177	     10.31914145	     -1.03717154	     31.08001529	      0.54244860	      8.63622572	     -5.50377064	     -7.49999987	     30.19484558	    -11.51532611	    -10.19194254	     17.22473420	      0.30062832	    -19.44873912	    -15.50415783	     -7.49999987	    -14.75921253	      3.51944420	      7.70895132	      6.42592535	    -19.64330461	     12.11273038	     35.68720409	     77.01859755	      3.26496108	     -7.60507042	    -14.09226896	     10.59417700	     81.22459575
     30.25000000	      2.89914291	      7.01115517	    192.01547014	      0.25568295	      0.96165936	      0.67176524	      6.07724825	     11.30789832	     -0.29953219	     31.42551171	      0.54847865	     10.36975450	     -2.37650992	     -7.49999987	     29.54409890	    -11.54850988	    -12.15880443	     14.21561541	      0.24810929	    -18.09074495	    -15.27708001	     -7.49999987	    -15.38379142	      3.89341753	      7.84186204	      6.85381443	    -19.66066000	     12.58891559	     35.68287918	     77.01872440	      3.04366645	     -7.35732250	    -14.67301807	     10.41468992	     81.33433133
     30.26666670	      2.57134074	      6.86525076	    192.62059577	      0.25615179	      0.95793431	      0.67211408	      4.17646589	     11.78796863	      0.89626915	     30.89515802	      0.53922223	     12.10242007	     -0.69277967	     -7.49999987	     29.00861660	    -11.07261868	    -14.04196721	     12.72614802	      0.22211318	    -16.24236019	    -16.21668797	     -7.49999987	    -16.07775481	      3.63339708	      7.76919601	      7.66753769	    -19.40044336	     13.17339540	     35.42051519	     77.05600927	      3.14177135	     -7.39816057	    -15.29110157	     10.08563781	     81.40501768
     30.28333330	      2.38378571	      6.39937076	    193.30290733	      0.25556439	      0.95255699	      0.67290569	      2.41800718	     11.71725960	      1.92660611	     30.20369362	      0.52715390	     13.31141080	     -0.48248298	     -7.49999987	     28.68728640	    -10.23947689	    -15.62667065	     12.43486344	      0.21702931	    -14.42202123	    -17.76413411	     -7.49999987	    -16.55546774	      3.02759360	      5.97806603	     10.16853536	    -18.77137221	     17.25808918	     33.58103074	     76.28140838	      2.26654927	     -7.49174990	    -20.98510259	     11.02973389	     84.69951765
     30.30000000	      2.32794932	      5.67894067	    193.90961189	      0.25462564	      0.94724719	      0.67381435	      1.13571092	     11.16088544	      2.76871302	     30.18297243	      0.52679225	     13.80002830	     -1.70935965	     -7.49999987	     28.63192256	     -9.23504382	    -16.89577908	     13.44151682	      0.23459873	    -12.24047808	    -19.90975692	     -7.49999987	    -16.85592669	      2.08329135	      5.38791346	     10.81261739	    -18.04598951	     17.73750380	     32.98941228	     75.89224932	      2.49199992	     -7.96779232	    -21.03915480	     10.49181003	     83.73753111
     30.31666670	      2.23097367	      4.90913116	    194.33128675	      0.25354973	      0.94350538	      0.67428620	      0.28101519	     10.52541214	      3.58309857	     31.15255883	      0.54371472	     14.28985263	     -4.44030828	     -7.49999987	     28.66160627	     -8.39379968	    -17.68376752	     15.50624961	      0.27063511	     -9.07643190	    -22.23305058	     -7.49999987	    -17.29933450	      1.01710682	      4.83510816	     11.06887145	    -17.25207331	     17.89154909	     32.66801798	     76.19901112	      2.61784113	     -8.52870800	    -21.15891306	     10.33128068	     83.92057502
